<?xml version="1.0" standalone="no"?>
<!DOCTYPE svg PUBLIC "-//W3C//DTD SVG 20010904//EN"
 "http://www.w3.org/TR/2001/REC-SVG-20010904/DTD/svg10.dtd">
<svg version="1.0" xmlns="http://www.w3.org/2000/svg"
 width="6912.000000pt" height="3456.000000pt" viewBox="0 0 6912.000000 3456.000000"
 preserveAspectRatio="xMidYMid meet">

<g transform="translate(0.000000,3456.000000) scale(0.100000,-0.100000)"
fill="#000000" stroke="none">
<path d="M21150 29050 l0 -2630 2630 0 2630 0 0 2630 0 2630 -2630 0 -2630 0
0 -2630z"/>
<path d="M42960 29050 l0 -2630 2630 0 2630 0 0 2630 0 2630 -2630 0 -2630 0
0 -2630z"/>
<path d="M29290 17280 l0 -5270 5270 0 5270 0 0 5270 0 5270 -5270 0 -5270 0
0 -5270z m7290 2015 l2015 -2015 -2018 -2018 -2017 -2017 -2017 2017 -2018
2018 2015 2015 c1108 1108 2017 2015 2020 2015 3 0 912 -907 2020 -2015z"/>
<path d="M21150 5545 l0 -2635 2630 0 2630 0 0 2635 0 2635 -2630 0 -2630 0 0
-2635z"/>
<path d="M42960 5545 l0 -2635 2630 0 2630 0 0 2635 0 2635 -2630 0 -2630 0 0
-2635z"/>
</g>
</svg>
