<?xml version="1.0" standalone="no"?>
<!DOCTYPE svg PUBLIC "-//W3C//DTD SVG 20010904//EN"
 "http://www.w3.org/TR/2001/REC-SVG-20010904/DTD/svg10.dtd">
<svg version="1.0" xmlns="http://www.w3.org/2000/svg"
 width="6912.000000pt" height="3456.000000pt" viewBox="0 0 6912.000000 3456.000000"
 preserveAspectRatio="xMidYMid meet">

<g transform="translate(0.000000,3456.000000) scale(0.100000,-0.100000)"
fill="#000000" stroke="none">
<path d="M25920 25915 l-8635 -8635 4550 -4550 c2502 -2502 4556 -4550 4562
-4550 7 0 13 -6 13 -13 0 -6 1834 -1846 4075 -4087 l4075 -4075 8638 8638
8637 8637 -8635 8635 c-4749 4749 -8637 8635 -8640 8635 -3 0 -3891 -3886
-8640 -8635z m13910 -8635 l0 -5270 -5270 0 -5270 0 0 5270 0 5270 5270 0
5270 0 0 -5270z"/>
<path d="M32540 19295 l-2015 -2015 2018 -2018 2017 -2017 2017 2017 2018
2018 -2015 2015 c-1108 1108 -2017 2015 -2020 2015 -3 0 -912 -907 -2020
-2015z"/>
</g>
</svg>
